<svg width="165" height="36" viewBox="0 0 165 36" fill="none" xmlns="http://www.w3.org/2000/svg">
<g clip-path="url(#clip0_3027_155)">
<path d="M23.147 12.8203H18.4808C18.3956 12.2166 18.2216 11.6804 17.9588 11.2116C17.696 10.7358 17.3587 10.331 16.9467 9.99716C16.5348 9.66335 16.0589 9.40767 15.5192 9.23011C14.9865 9.05256 14.4077 8.96378 13.7827 8.96378C12.6534 8.96378 11.6697 9.24432 10.8317 9.8054C9.99361 10.3594 9.34375 11.169 8.8821 12.2344C8.42045 13.2926 8.18963 14.5781 8.18963 16.0909C8.18963 17.6463 8.42045 18.9531 8.8821 20.0114C9.35085 21.0696 10.0043 21.8686 10.8423 22.4084C11.6804 22.9482 12.6499 23.218 13.7507 23.218C14.3686 23.218 14.9403 23.1364 15.4659 22.973C15.9986 22.8097 16.4709 22.5717 16.8828 22.2592C17.2947 21.9396 17.6357 21.5526 17.9055 21.098C18.1825 20.6435 18.3743 20.125 18.4808 19.5426L23.147 19.5639C23.0263 20.5653 22.7244 21.5312 22.2415 22.4616C21.7656 23.3849 21.1229 24.2124 20.3132 24.9439C19.5107 25.6683 18.5518 26.2436 17.4368 26.6697C16.3288 27.0888 15.0753 27.2983 13.6761 27.2983C11.7301 27.2983 9.99006 26.858 8.45597 25.9773C6.92898 25.0966 5.72159 23.8217 4.83381 22.1527C3.95312 20.4837 3.51278 18.4631 3.51278 16.0909C3.51278 13.7116 3.96023 11.6875 4.85511 10.0185C5.75 8.34943 6.96449 7.07812 8.49858 6.20455C10.0327 5.32386 11.7585 4.88352 13.6761 4.88352C14.9403 4.88352 16.1122 5.06108 17.1918 5.41619C18.2784 5.77131 19.2408 6.28977 20.0788 6.97159C20.9169 7.64631 21.5987 8.47372 22.1243 9.45383C22.657 10.4339 22.9979 11.5561 23.147 12.8203ZM33.7631 27.3196C32.1083 27.3196 30.6772 26.968 29.4698 26.2649C28.2695 25.5547 27.3427 24.5675 26.6893 23.3033C26.0359 22.032 25.7092 20.5582 25.7092 18.8821C25.7092 17.1918 26.0359 15.7145 26.6893 14.4503C27.3427 13.179 28.2695 12.1918 29.4698 11.4886C30.6772 10.7784 32.1083 10.4233 33.7631 10.4233C35.418 10.4233 36.8455 10.7784 38.0458 11.4886C39.2532 12.1918 40.1836 13.179 40.837 14.4503C41.4904 15.7145 41.8171 17.1918 41.8171 18.8821C41.8171 20.5582 41.4904 22.032 40.837 23.3033C40.1836 24.5675 39.2532 25.5547 38.0458 26.2649C36.8455 26.968 35.418 27.3196 33.7631 27.3196ZM33.7844 23.804C34.5373 23.804 35.1658 23.5909 35.6701 23.1648C36.1744 22.7315 36.5543 22.142 36.81 21.3963C37.0728 20.6506 37.2042 19.8018 37.2042 18.8501C37.2042 17.8984 37.0728 17.0497 36.81 16.304C36.5543 15.5582 36.1744 14.9687 35.6701 14.5355C35.1658 14.1023 34.5373 13.8857 33.7844 13.8857C33.0245 13.8857 32.3853 14.1023 31.8668 14.5355C31.3555 14.9687 30.9684 15.5582 30.7056 16.304C30.4499 17.0497 30.3221 17.8984 30.3221 18.8501C30.3221 19.8018 30.4499 20.6506 30.7056 21.3963C30.9684 22.142 31.3555 22.7315 31.8668 23.1648C32.3853 23.5909 33.0245 23.804 33.7844 23.804ZM49.3065 17.5398V27H44.7681V10.6364H49.0934V13.5234H49.2852C49.6474 12.5717 50.2546 11.8189 51.1069 11.2649C51.9592 10.7038 52.9925 10.4233 54.207 10.4233C55.3434 10.4233 56.3342 10.6719 57.1793 11.169C58.0245 11.6662 58.6815 12.3764 59.1502 13.2997C59.619 14.2159 59.8533 15.3097 59.8533 16.581V27H55.315V17.3906C55.3221 16.3892 55.0664 15.608 54.5479 15.0469C54.0295 14.4787 53.3157 14.1946 52.4066 14.1946C51.7958 14.1946 51.256 14.326 50.7873 14.5888C50.3256 14.8516 49.9634 15.2351 49.7006 15.7393C49.445 16.2365 49.3136 16.8366 49.3065 17.5398ZM72.1341 10.6364V14.0455H62.2797V10.6364H72.1341ZM64.5169 6.71591H69.0552V21.9716C69.0552 22.3906 69.1191 22.7173 69.247 22.9517C69.3748 23.179 69.5524 23.3388 69.7797 23.4311C70.014 23.5234 70.2839 23.5696 70.5893 23.5696C70.8024 23.5696 71.0154 23.5518 71.2285 23.5163C71.4416 23.4737 71.6049 23.4418 71.7186 23.4205L72.4324 26.7976C72.2051 26.8686 71.8855 26.9503 71.4735 27.0426C71.0616 27.142 70.5609 27.2024 69.9714 27.2237C68.8777 27.2663 67.9189 27.1207 67.095 26.7869C66.2782 26.4531 65.6426 25.9347 65.188 25.2315C64.7335 24.5284 64.5098 23.6406 64.5169 22.5682V6.71591ZM79.7566 27.3089C78.7125 27.3089 77.7821 27.1278 76.9654 26.7656C76.1486 26.3963 75.5023 25.853 75.0265 25.1357C74.5577 24.4112 74.3233 23.5092 74.3233 22.4297C74.3233 21.5206 74.4902 20.7571 74.824 20.1392C75.1578 19.5213 75.6124 19.0241 76.1877 18.6477C76.763 18.2713 77.4164 17.9872 78.1479 17.7955C78.8865 17.6037 79.6607 17.4688 80.4703 17.3906C81.4221 17.2912 82.1891 17.1989 82.7715 17.1136C83.3539 17.0213 83.7765 16.8864 84.0392 16.7088C84.302 16.5312 84.4334 16.2685 84.4334 15.9205V15.8565C84.4334 15.1818 84.2203 14.6598 83.7942 14.2905C83.3752 13.9212 82.7786 13.7365 82.0044 13.7365C81.1877 13.7365 80.5378 13.9176 80.0549 14.2798C79.5719 14.6349 79.2523 15.0824 79.0961 15.6222L74.8986 15.2812C75.1117 14.2869 75.5307 13.4276 76.1557 12.7031C76.7807 11.9716 77.5868 11.4105 78.574 11.0199C79.5684 10.6222 80.7189 10.4233 82.0257 10.4233C82.9348 10.4233 83.8049 10.5298 84.6358 10.7429C85.4739 10.956 86.2161 11.2862 86.8624 11.7337C87.5158 12.1811 88.0307 12.7564 88.4071 13.4595C88.7836 14.1555 88.9718 14.9901 88.9718 15.9631V27H84.6678V24.7308H84.54C84.2772 25.2422 83.9256 25.6932 83.4853 26.0838C83.0449 26.4673 82.5158 26.7692 81.8979 26.9893C81.28 27.2024 80.5662 27.3089 79.7566 27.3089ZM81.0563 24.1768C81.7239 24.1768 82.3134 24.0455 82.8248 23.7827C83.3361 23.5128 83.7374 23.1506 84.0286 22.696C84.3198 22.2415 84.4654 21.7266 84.4654 21.1513V19.4148C84.3233 19.5071 84.128 19.5923 83.8794 19.6705C83.638 19.7415 83.3645 19.8089 83.0591 19.8729C82.7537 19.9297 82.4483 19.983 82.1429 20.0327C81.8375 20.0753 81.5605 20.1143 81.312 20.1499C80.7793 20.228 80.3141 20.3523 79.9164 20.5227C79.5186 20.6932 79.2097 20.924 78.9895 21.2152C78.7694 21.4993 78.6593 21.8544 78.6593 22.2805C78.6593 22.8984 78.883 23.3707 79.3304 23.6974C79.785 24.017 80.3603 24.1768 81.0563 24.1768ZM99.5213 27V5.18182H108.257C109.862 5.18182 111.201 5.41974 112.273 5.8956C113.346 6.37145 114.152 7.03196 114.692 7.87713C115.232 8.7152 115.501 9.68111 115.501 10.7749C115.501 11.6271 115.331 12.3764 114.99 13.0227C114.649 13.6619 114.18 14.1875 113.584 14.5994C112.994 15.0043 112.32 15.2919 111.56 15.4624V15.6754C112.391 15.7109 113.168 15.9453 113.893 16.3786C114.624 16.8118 115.217 17.419 115.672 18.2003C116.126 18.9744 116.354 19.8977 116.354 20.9702C116.354 22.1278 116.066 23.1612 115.491 24.0703C114.923 24.9723 114.081 25.6861 112.966 26.2116C111.851 26.7372 110.477 27 108.843 27H99.5213ZM104.134 23.2287H107.895C109.18 23.2287 110.118 22.9837 110.707 22.4936C111.297 21.9964 111.592 21.3359 111.592 20.5121C111.592 19.9084 111.446 19.3757 111.155 18.9141C110.864 18.4524 110.448 18.0902 109.908 17.8274C109.376 17.5646 108.74 17.4332 108.001 17.4332H104.134V23.2287ZM104.134 14.3118H107.554C108.186 14.3118 108.747 14.2017 109.237 13.9815C109.734 13.7543 110.125 13.4347 110.409 13.0227C110.7 12.6108 110.846 12.1172 110.846 11.5419C110.846 10.7536 110.565 10.1179 110.004 9.63494C109.45 9.15199 108.662 8.91051 107.639 8.91051H104.134V14.3118ZM123.808 5.18182V27H119.27V5.18182H123.808ZM137.938 20.0327V10.6364H142.476V27H138.119V24.0277H137.948C137.579 24.9865 136.964 25.7571 136.105 26.3395C135.253 26.9219 134.212 27.2131 132.984 27.2131C131.89 27.2131 130.928 26.9645 130.097 26.4673C129.266 25.9702 128.616 25.2635 128.147 24.3473C127.685 23.4311 127.451 22.3338 127.444 21.0554V10.6364H131.982V20.2457C131.989 21.2116 132.249 21.9751 132.76 22.5362C133.271 23.0973 133.957 23.3778 134.816 23.3778C135.363 23.3778 135.874 23.2536 136.35 23.005C136.826 22.7493 137.21 22.3729 137.501 21.8757C137.799 21.3786 137.945 20.7642 137.938 20.0327ZM153.563 27.3196C151.88 27.3196 150.431 26.9787 149.217 26.2969C148.009 25.608 147.079 24.6349 146.426 23.3778C145.772 22.1136 145.445 20.6186 145.445 18.8928C145.445 17.2095 145.772 15.7322 146.426 14.4609C147.079 13.1896 147.999 12.1989 149.185 11.4886C150.378 10.7784 151.777 10.4233 153.382 10.4233C154.462 10.4233 155.467 10.5973 156.397 10.9453C157.335 11.2862 158.151 11.8011 158.847 12.4901C159.551 13.179 160.097 14.0455 160.488 15.0895C160.879 16.1264 161.074 17.3409 161.074 18.733V19.9794H147.257V17.1669H156.802C156.802 16.5135 156.66 15.9347 156.376 15.4304C156.092 14.9261 155.698 14.532 155.193 14.2479C154.696 13.9567 154.117 13.8111 153.457 13.8111C152.768 13.8111 152.157 13.9709 151.624 14.2905C151.099 14.603 150.687 15.0256 150.389 15.5582C150.09 16.0838 149.938 16.6697 149.931 17.3161V19.9901C149.931 20.7997 150.08 21.4993 150.378 22.0888C150.683 22.6783 151.113 23.1328 151.667 23.4524C152.221 23.772 152.878 23.9318 153.638 23.9318C154.142 23.9318 154.604 23.8608 155.023 23.7188C155.442 23.5767 155.801 23.3636 156.099 23.0795C156.397 22.7955 156.624 22.4474 156.781 22.0355L160.978 22.3125C160.765 23.321 160.328 24.2017 159.668 24.9545C159.014 25.7003 158.169 26.2827 157.132 26.7017C156.102 27.1136 154.913 27.3196 153.563 27.3196Z" fill="white"/>
</g>
<defs>
<clipPath id="clip0_3027_155">
<rect width="165" height="36" fill="white"/>
</clipPath>
</defs>
</svg>
